<?xml version="1.0" encoding="utf-8"?>
<!-- Generator: Adobe Illustrator 27.0.0, SVG Export Plug-In . SVG Version: 6.00 Build 0)  -->
<svg version="1.1" id="Camada_1" xmlns="http://www.w3.org/2000/svg" xmlns:xlink="http://www.w3.org/1999/xlink" x="0px" y="0px"
	 viewBox="0 0 300 70" style="enable-background:new 0 0 300 70;" xml:space="preserve">
<style type="text/css">
	.st0{fill:#000047;}
	.st1{opacity:0.97;}
	.st2{clip-path:url(#SVGID_00000118367724509110456540000016393426059075418801_);}
	.st3{fill:none;stroke:#FFFFFF;stroke-miterlimit:10;}
	.st4{fill:#120C1B;}
	.st5{fill:#D01848;}
	.st6{fill:#FFFFFF;}
	.st7{fill:#1F2022;}
	.st8{fill:#FFFFFF;stroke:#FFFFFF;stroke-width:2;stroke-miterlimit:10;}
	.st9{fill:#072D74;}
	.st10{fill:#00B5E2;}
	.st11{fill:#3D54DA;}
	.st12{opacity:0.59;}
	.st13{opacity:0.4;clip-path:url(#SVGID_00000065055710542646468700000014983820483989648566_);}
	.st14{opacity:0.45;}
	.st15{opacity:0.4;clip-path:url(#SVGID_00000133499608478706776180000011628389057751876750_);}
	.st16{fill:#EFEFEF;}
	.st17{opacity:0.49;clip-path:url(#SVGID_00000157290428040694135480000006381023635731602598_);}
	.st18{fill:none;}
	.st19{fill:#C1C1C1;}
	.st20{fill:#45182C;}
	.st21{fill:#890934;stroke:#890934;stroke-width:0.7;stroke-miterlimit:10;}
	.st22{fill:#1C1715;}
	.st23{fill:#E59026;}
	.st24{fill:#E66132;}
	.st25{fill:#D6C3B9;}
	.st26{fill:#0CD664;}
	.st27{fill:#1F262F;}
	.st28{fill:#33B0A4;}
	.st29{clip-path:url(#SVGID_00000043425889404708756280000008243140262987934863_);}
	.st30{clip-path:url(#SVGID_00000131363316116229995170000016766682285243759234_);}
	.st31{fill:none;stroke:#33B0A4;stroke-width:2;stroke-miterlimit:10;}
	.st32{clip-path:url(#SVGID_00000021081414936778123850000015656580637044797832_);}
	.st33{clip-path:url(#SVGID_00000101085600492764795590000009852037555972252862_);}
</style>
<g>
	<g>
		<path class="st4" d="M177.29,50.96c-0.04-3.19-0.07-5.65-0.07-7.36c-0.04-1.77-0.07-3.56-0.07-5.33c0-1.75-0.02-3.4-0.07-4.9
			c-0.09-5.12-1.13-9.16-3.07-12c-2.09-3.03-5.61-4.56-10.49-4.56c-3.79,0-7.15,1.16-9.97,3.45c-1.83,1.48-3.29,3.37-4.38,5.64
			c-2.09-7.46-7.77-9.15-12.53-9.15c-3.95,0.04-7.29,1.26-9.94,3.64c-1.15,1.03-2.15,2.22-3,3.57l0.57-6.35h-0.08h-10.09h-0.7
			l0.71,11.59c0.13,4.02,0.2,0.11,0.2,8.77c0,8.64-0.11,15.04-0.33,19.03l-0.07,1.28h0.03h10.18h0.09l-0.05-1.26
			c-0.22-5.07-0.33-11-0.33-17.63v-6.91c2.43-5.73,5.64-8.52,9.82-8.52c1.83,0,3.2,0.39,4.21,1.19c1.03,0.82,1.79,2.21,2.29,4.15
			c0.53,2.1,0.82,4.99,0.87,8.56c0,8.71-0.09,15.15-0.27,19.16l-0.05,1.26h10.16l-0.23-8.98l-0.13-6.26V32.45
			c2.42-5.73,5.64-8.52,9.82-8.52c2.21,0,3.79,0.57,4.8,1.76c1.12,1.31,1.83,2.85,2.1,4.58c0.31,1.89,0.46,4.15,0.46,6.71v8.95
			l-0.23,12.33h10.04l-0.07-1.28C177.39,56.41,177.35,54.91,177.29,50.96z"/>
		<path class="st4" d="M212.7,43.16c-0.45,2.26-1.34,4.38-2.65,6.31c-2.01,1.57-4.53,2.33-7.66,2.33c-3.33,0-5.91-1.04-7.91-3.17
			c-1.84-1.96-2.93-4.68-3.25-8.1l29.73-2.45h0.08l1.52-0.13l-0.06-1.14c-0.33-6.35-2.17-11.31-5.48-14.74
			c-3.37-3.49-8.2-5.26-14.36-5.26c-6.74,0-12.02,1.89-15.7,5.61c-3.64,3.69-5.49,8.96-5.49,15.66c0,6.62,1.76,11.8,5.25,15.41
			c3.52,3.65,8.68,5.5,15.33,5.5c11.48,0,18.26-5.12,20.16-15.21l0.23-1.23l0.01-0.05l0.02-0.1l0.15-1.04l-9.72,0.78L212.7,43.16z
			 M193.43,27.52c1.01-1.1,2.27-1.98,3.75-2.61c1.53-0.65,3.21-0.98,5.01-0.98c3.06,0,5.41,0.9,7.19,2.75
			c1.62,1.69,2.72,4.08,3.27,7.12l-21.38,1.66C191.53,32.43,192.26,29.76,193.43,27.52z"/>
		<path class="st4" d="M249.04,16.92c-3.49,0-6.71,1.19-9.55,3.55c-1.25,1.03-2.34,2.23-3.27,3.6l0.65-6.48h-10.78l0.71,11.59
			c0.13,4.02,0.2,0.11,0.2,8.77c0,8.64-0.11,15.04-0.33,19.03l-0.07,1.28h10.21l-0.06-1.27c-0.17-3.85-0.27-9.7-0.27-17.39v-7.93
			c1.11-2.46,2.41-4.38,3.86-5.73c1.38-1.27,2.96-1.89,4.83-1.89c1.56,0,8.5,0.43,10.04,6.82c0.14-0.58,0.27-1.07,0.41-1.51
			c0.82-2.79,2.01-5.25,3.56-7.34C257.09,18.7,252.97,16.92,249.04,16.92z"/>
		<path class="st4" d="M109.31,17.59h-0.38l0-0.02h-1.36c-0.36,0-0.67,0.01-0.95,0.02h-5.38c-0.29-0.01-0.6-0.02-0.95-0.02h-1.37
			l0,0.02h-0.38l0.61,10.04c0,0,0,0,0.01,0c0.05,3.51,0.07,7.33,0.07,11.46c0,6.32-0.09,12.37-0.27,18.01l-0.04,1.25h10.02
			l-0.03-1.25c-0.13-5.45-0.2-11.51-0.2-18.02c0-4.29,0.02-8.22,0.06-11.8c0,0,0.01,0,0.01,0L108.77,27
			c0.02-1.59,0.04-3.11,0.06-4.56L109.31,17.59z"/>
		<path class="st4" d="M94.18,17.59H83.4l0.45,7.36c0.06,3.09,0.09,6.75,0.09,10.97v7.58c-1.03,2.41-2.68,4.46-4.91,6.07
			c-2.27,1.65-4.58,2.45-7.05,2.45c-2.17,0-3.72-0.57-4.73-1.76c-1.12-1.31-1.83-2.87-2.11-4.63c-0.3-1.93-0.45-4.21-0.45-6.78
			v-8.42c0-1.39,0.03-3.59,0.08-6.55l0.54-6.29H54.52l0.57,9.35c0.03,2.34,0.04,4.12,0.04,5.41c0.05,1.75,0.07,3.51,0.07,5.24
			c0,1.78,0.03,3.41,0.07,4.82c0.15,5.48,1.16,9.51,3.12,12.33c2.05,2.97,5.61,4.47,10.58,4.47c2.65,0,5.22-0.57,7.62-1.68
			c2.39-1.11,4.48-2.68,6.21-4.65c0.51-0.58,0.98-1.18,1.41-1.8l-0.65,7.29h10.17l-0.04-1.25c-0.13-4.03-0.2-10.46-0.2-19.11
			c0-5.6,0.05-10.25,0.14-13.92L94.18,17.59z"/>
		<path class="st4" d="M296.89,47.53v-1.79c-0.09-4.08-0.13-7.25-0.13-9.44c-0.05-6.3-1.47-11.12-4.23-14.34
			c-2.84-3.3-7.39-4.97-13.54-4.97c-5.82,0-10.41,1.25-13.66,3.73c-2.91,2.22-4.98,5.42-6.19,9.55c-0.14,0.46-0.26,0.92-0.37,1.4
			l-0.29,1.22l1.14,0.19l8.33,1.41l0.25-1.19c0.65-3.14,1.99-5.49,3.99-6.95c1.47-1.06,3.33-1.71,5.53-1.93
			c2.59,0.01,4.58,0.48,5.91,1.4c1.35,0.94,2.25,2.18,2.73,3.78c0.49,1.64,0.78,3.68,0.85,6.06l-7.88-0.19
			c-5.82,0-10.76,1-14.68,2.99c-4.19,2.11-6.31,5.39-6.31,9.75c0,2.06,0.59,3.95,1.75,5.62c1.15,1.67,2.79,2.99,4.89,3.92
			c2.05,0.91,4.43,1.37,7.07,1.37c3.06,0,5.89-0.62,8.41-1.85c2.5-1.22,4.6-2.83,6.25-4.79c0.35-0.41,0.67-0.83,0.97-1.25
			l-0.72,7.03h10.02v-1.22C296.96,53.29,296.94,50.08,296.89,47.53z M287.28,43.5c-0.46,0.97-1.28,2.08-2.45,3.32
			c-1.26,1.34-2.79,2.51-4.55,3.47c-1.68,0.92-3.46,1.38-5.3,1.38c-2.46,0-4.32-0.41-5.52-1.23c-1.1-0.74-1.63-1.95-1.63-3.72
			c0-2.42,1.22-3.96,3.85-4.86c2.98-1.02,6.18-1.54,9.52-1.54c2.21,0,4.25,0.04,6.09,0.12V43.5z"/>
		<path class="st28" d="M30.05,27.24c-0.91-1.99-1.97-2.69-3.24-2.23c-8.41,3.02-6.44,9.19-3.72,14.85
			c0.79,1.64,1.93,2.62,3.65,1.93c5.06-2.02,5.37-5.83,4.72-9.7C31.15,30.22,30.66,28.52,30.05,27.24z"/>
		<path class="st28" d="M104.1,1.63l-6.91,6.05c0,0,2.21,4.36,6.77,6.69l6.7-6.56C110.65,7.81,106.59,5.92,104.1,1.63z"/>
		<path class="st4" d="M58.38,60.95c-0.01-0.01-0.03-0.03-0.04-0.04l-0.38-0.43c-0.14-0.15-0.27-0.3-0.42-0.47
			c-0.47-0.54-0.99-1.12-1.56-1.76c-5.47-0.35-10.34-0.4-14.65-0.26c-1.27,0.04-2.5,0.1-3.67,0.18c-1.19,0.13-2.37,0.27-3.37,0.31
			c0.03-0.02,0.07-0.04,0.1-0.06c2.35-1.31,4.97-3.08,6.66-4.55c1.36-1.17,2.57-2.47,3.61-3.87c1.04-1.4,1.91-2.91,2.62-4.52
			c1.39-3.19,2.15-7.08,2.23-11.56c0.05-2.74-0.11-5.21-0.46-7.33c-0.95-5.75-3.33-10.21-7.08-13.26c-3.76-3.05-8.8-4.6-15-4.6
			c-7.59,0-13.49,2.2-17.52,6.52c-3.97,4.26-6.12,10.5-6.4,18.56c-0.07,2.34,0.08,4.66,0.45,6.92c0.87,5.24,2.93,9.41,6.15,12.41
			c3.27,3.06,7.62,4.6,12.91,4.6c0.89,0,1.77-0.04,2.63-0.12c0.21-0.02,0.41-0.04,0.62-0.07c-0.42,0.23-0.83,0.44-1.25,0.66
			c-1.02,0.53-2.1,1.07-3.24,1.61c-1.45,0.7-3,1.42-4.63,2.14c-0.01,0.01-0.03,0.01-0.05,0.02c-1.54,0.56-2.28,0.95-2.28,0.95
			s0,0,3.05,5.44c1.28-0.61,2.85-1.11,4.62-1.53c2.7-0.64,5.88-1.08,9.25-1.37c0.09-0.01,0.17-0.01,0.25-0.02
			c6.96-0.58,14.7-0.55,20.72-0.36c6.07,0.19,10.38,0.52,10.38,0.52S62.19,65.23,58.38,60.95z M26.34,51.04
			c-3.69,0-6.61-0.97-8.92-2.99c-1.16-1-2.12-2.26-2.87-3.76c-0.75-1.5-1.28-3.24-1.61-5.2c-0.28-1.67-0.39-3.53-0.33-5.5
			c0.13-3.33,0.69-6.33,1.64-8.93c0.93-2.52,2.14-4.63,3.61-6.28c2.19-1.59,5.1-2.4,8.63-2.4c3.59,0,6.41,0.97,8.63,2.97
			c2.24,2.01,3.71,5.04,4.36,8.98c0.31,1.91,0.43,3.92,0.35,6.01c-0.19,6.51-2.19,11.62-5.96,15.19
			C31.79,50.39,29.26,51.04,26.34,51.04z"/>
	</g>
</g>
<g class="st1">
	<defs>
		
			<rect id="SVGID_00000139282959634467154930000018060154022940136581_" x="-5.44" y="231.38" class="st1" width="1510.89" height="778.37"/>
	</defs>
	<clipPath id="SVGID_00000179641337377796975610000001509018355034851772_">
		<use xlink:href="#SVGID_00000139282959634467154930000018060154022940136581_"  style="overflow:visible;"/>
	</clipPath>
	<g style="clip-path:url(#SVGID_00000179641337377796975610000001509018355034851772_);">
		<path class="st3" d="M-107.43-111.8c0.03,0.03,0.06,0.07,0.09,0.1l0.89,1.02c0.33,0.36,0.64,0.72,0.99,1.1
			c1.11,1.26,2.34,2.63,3.67,4.14c12.87,0.82,24.34,0.93,34.49,0.6c3-0.1,5.89-0.24,8.65-0.42c2.79-0.3,5.59-0.64,7.93-0.73
			c-0.08,0.04-0.16,0.09-0.24,0.14c-5.54,3.09-11.69,7.26-15.68,10.71c-3.2,2.76-6.04,5.81-8.49,9.11
			c-2.45,3.29-4.5,6.86-6.17,10.65c-3.28,7.52-5.05,16.67-5.26,27.22c-0.11,6.44,0.25,12.26,1.08,17.27
			c2.23,13.53,7.85,24.04,16.67,31.21c8.85,7.19,20.73,10.84,35.31,10.84C-15.61,11.17-1.72,6,7.76-4.2
			c9.34-10.04,14.41-24.73,15.07-43.7c0.17-5.5-0.19-10.98-1.07-16.29C19.72-76.52,14.86-86.34,7.28-93.4
			c-7.71-7.2-17.94-10.84-30.4-10.84c-2.1,0-4.17,0.09-6.18,0.29c-0.49,0.04-0.97,0.1-1.46,0.16c0.99-0.53,1.96-1.05,2.93-1.56
			c2.4-1.25,4.94-2.52,7.63-3.79c3.42-1.65,7.06-3.34,10.91-5.04c0.03-0.01,0.08-0.03,0.11-0.04c3.63-1.32,5.37-2.23,5.37-2.23
			s0,0-7.19-12.8c-3.01,1.43-6.7,2.62-10.88,3.59c-6.36,1.5-13.84,2.53-21.78,3.22c-0.2,0.01-0.39,0.03-0.58,0.04
			c-16.38,1.37-34.6,1.29-48.78,0.86c-14.28-0.44-24.44-1.23-24.44-1.23S-116.42-121.86-107.43-111.8z M-32-88.46
			c8.68,0,15.55,2.29,21,7.03c2.73,2.36,4.99,5.33,6.75,8.86c1.76,3.52,3.01,7.62,3.78,12.24c0.66,3.94,0.91,8.3,0.78,12.96
			c-0.31,7.83-1.62,14.91-3.86,21.03c-2.18,5.93-5.04,10.9-8.49,14.79C-17.21-7.79-24.05-5.9-32.37-5.9c-8.44,0-15.1-2.29-20.32-7
			c-5.27-4.74-8.73-11.86-10.26-21.13c-0.74-4.5-1.02-9.24-0.82-14.15c0.44-15.32,5.15-27.36,14.03-35.77
			C-44.83-86.94-38.86-88.46-32-88.46z"/>
		<path class="st3" d="M185.05-6.3c-0.03-0.03-0.06-0.07-0.09-0.1l-0.89-1.02c-0.33-0.36-0.64-0.72-0.99-1.1
			c-1.11-1.26-2.34-2.63-3.67-4.14c-12.87-0.82-24.34-0.93-34.49-0.6c-3,0.1-5.89,0.24-8.65,0.42c-2.79,0.3-5.59,0.64-7.93,0.73
			c0.08-0.04,0.16-0.09,0.24-0.14c5.54-3.09,11.69-7.26,15.68-10.71c3.2-2.76,6.04-5.81,8.49-9.11c2.45-3.29,4.5-6.86,6.17-10.65
			c3.28-7.52,5.05-16.67,5.26-27.22c0.11-6.44-0.25-12.26-1.08-17.27c-2.23-13.53-7.85-24.04-16.67-31.21
			c-8.85-7.19-20.73-10.84-35.31-10.84c-17.88,0-31.76,5.17-41.24,15.36c-9.34,10.04-14.41,24.73-15.07,43.7
			c-0.17,5.5,0.19,10.98,1.07,16.29c2.04,12.33,6.91,22.15,14.49,29.21c7.71,7.2,17.94,10.84,30.4,10.84c2.1,0,4.17-0.09,6.18-0.29
			c0.49-0.04,0.97-0.1,1.46-0.16c-0.99,0.53-1.96,1.05-2.93,1.56c-2.4,1.25-4.94,2.52-7.63,3.79c-3.42,1.65-7.06,3.34-10.91,5.04
			c-0.03,0.01-0.08,0.03-0.11,0.04c-3.63,1.32-5.37,2.23-5.37,2.23s0,0,7.19,12.8c3.01-1.43,6.7-2.62,10.88-3.59
			c6.36-1.5,13.84-2.53,21.78-3.22c0.2-0.01,0.39-0.03,0.58-0.04c16.38-1.37,34.6-1.29,48.78-0.86c14.28,0.44,24.44,1.23,24.44,1.23
			S194.05,3.77,185.05-6.3z M109.63-29.64c-8.68,0-15.55-2.29-21-7.03c-2.73-2.36-4.99-5.33-6.75-8.86
			c-1.76-3.52-3.01-7.62-3.78-12.24c-0.66-3.94-0.91-8.3-0.78-12.96c0.31-7.83,1.62-14.91,3.86-21.03
			c2.18-5.93,5.04-10.9,8.49-14.79c5.16-3.75,12.01-5.64,20.32-5.64c8.44,0,15.1,2.29,20.32,7c5.27,4.74,8.73,11.86,10.26,21.13
			c0.74,4.5,1.02,9.24,0.82,14.15c-0.44,15.32-5.15,27.36-14.03,35.77C122.45-31.16,116.49-29.64,109.63-29.64z"/>
		<path class="st3" d="M205.11-111.8c0.03,0.03,0.06,0.07,0.09,0.1l0.89,1.02c0.33,0.36,0.64,0.72,0.99,1.1
			c1.11,1.26,2.34,2.63,3.67,4.14c12.87,0.82,24.34,0.93,34.49,0.6c3-0.1,5.89-0.24,8.65-0.42c2.79-0.3,5.59-0.64,7.93-0.73
			c-0.08,0.04-0.16,0.09-0.24,0.14c-5.54,3.09-11.69,7.26-15.68,10.71c-3.2,2.76-6.04,5.81-8.49,9.11
			c-2.45,3.29-4.5,6.86-6.17,10.65c-3.28,7.52-5.05,16.67-5.26,27.22c-0.11,6.44,0.25,12.26,1.08,17.27
			c2.23,13.53,7.85,24.04,16.67,31.21c8.85,7.19,20.73,10.84,35.31,10.84c17.88,0,31.76-5.17,41.24-15.36
			c9.34-10.04,14.41-24.73,15.07-43.7c0.17-5.5-0.19-10.98-1.07-16.29c-2.04-12.33-6.91-22.15-14.49-29.21
			c-7.71-7.2-17.94-10.84-30.4-10.84c-2.1,0-4.17,0.09-6.18,0.29c-0.49,0.04-0.97,0.1-1.46,0.16c0.99-0.53,1.96-1.05,2.93-1.56
			c2.4-1.25,4.94-2.52,7.63-3.79c3.42-1.65,7.06-3.34,10.91-5.04c0.03-0.01,0.08-0.03,0.11-0.04c3.63-1.32,5.37-2.23,5.37-2.23
			s0,0-7.19-12.8c-3.01,1.43-6.7,2.62-10.88,3.59c-6.36,1.5-13.84,2.53-21.78,3.22c-0.2,0.01-0.39,0.03-0.58,0.04
			c-16.38,1.37-34.6,1.29-48.78,0.86c-14.28-0.44-24.44-1.23-24.44-1.23S196.12-121.86,205.11-111.8z M280.54-88.46
			c8.68,0,15.55,2.29,21,7.03c2.73,2.36,4.99,5.33,6.75,8.86c1.76,3.52,3.01,7.62,3.78,12.24c0.66,3.94,0.91,8.3,0.78,12.96
			c-0.31,7.83-1.62,14.91-3.86,21.03c-2.18,5.93-5.04,10.9-8.49,14.79c-5.16,3.75-12.01,5.64-20.32,5.64c-8.44,0-15.1-2.29-20.32-7
			c-5.27-4.74-8.73-11.86-10.26-21.13c-0.74-4.5-1.02-9.24-0.82-14.15c0.44-15.32,5.15-27.36,14.03-35.77
			C267.71-86.94,273.68-88.46,280.54-88.46z"/>
		<path class="st3" d="M-107.43,58.37c0.03,0.03,0.06,0.07,0.09,0.1l0.89,1.02c0.33,0.36,0.64,0.72,0.99,1.1
			c1.11,1.26,2.34,2.63,3.67,4.14c12.87,0.82,24.34,0.93,34.49,0.6c3-0.1,5.89-0.24,8.65-0.42c2.79-0.3,5.59-0.64,7.93-0.73
			c-0.08,0.04-0.16,0.09-0.24,0.14c-5.54,3.09-11.69,7.26-15.68,10.71c-3.2,2.76-6.04,5.81-8.49,9.11
			c-2.45,3.29-4.5,6.86-6.17,10.65c-3.28,7.52-5.05,16.67-5.26,27.22c-0.11,6.44,0.25,12.26,1.08,17.27
			c2.23,13.53,7.85,24.04,16.67,31.21c8.85,7.19,20.73,10.84,35.31,10.84c17.88,0,31.76-5.17,41.24-15.36
			c9.34-10.04,14.41-24.73,15.07-43.7c0.17-5.5-0.19-10.98-1.07-16.29c-2.04-12.33-6.91-22.15-14.49-29.21
			c-7.71-7.2-17.94-10.84-30.4-10.84c-2.1,0-4.17,0.09-6.18,0.29c-0.49,0.04-0.97,0.1-1.46,0.16c0.99-0.53,1.96-1.05,2.93-1.56
			c2.4-1.25,4.94-2.52,7.63-3.79c3.42-1.65,7.06-3.34,10.91-5.04c0.03-0.01,0.08-0.03,0.11-0.04c3.63-1.32,5.37-2.23,5.37-2.23
			s0,0-7.19-12.8c-3.01,1.43-6.7,2.62-10.88,3.59c-6.36,1.5-13.84,2.53-21.78,3.22c-0.2,0.01-0.39,0.03-0.58,0.04
			c-16.38,1.37-34.6,1.29-48.78,0.86c-14.28-0.44-24.44-1.23-24.44-1.23S-116.42,48.31-107.43,58.37z M-32,81.71
			c8.68,0,15.55,2.29,21,7.03c2.73,2.36,4.99,5.33,6.75,8.86c1.76,3.52,3.01,7.62,3.78,12.24c0.66,3.94,0.91,8.3,0.78,12.96
			c-0.31,7.83-1.62,14.91-3.86,21.03c-2.18,5.93-5.04,10.9-8.49,14.79c-5.16,3.75-12.01,5.64-20.32,5.64c-8.44,0-15.1-2.29-20.32-7
			c-5.27-4.74-8.73-11.86-10.26-21.13c-0.74-4.5-1.02-9.24-0.82-14.15c0.44-15.32,5.15-27.36,14.03-35.77
			C-44.83,83.23-38.86,81.71-32,81.71z"/>
		<path class="st3" d="M185.05,163.87c-0.03-0.03-0.06-0.07-0.09-0.1l-0.89-1.02c-0.33-0.36-0.64-0.72-0.99-1.1
			c-1.11-1.26-2.34-2.63-3.67-4.14c-12.87-0.82-24.34-0.93-34.49-0.6c-3,0.1-5.89,0.24-8.65,0.42c-2.79,0.3-5.59,0.64-7.93,0.73
			c0.08-0.04,0.16-0.09,0.24-0.14c5.54-3.09,11.69-7.26,15.68-10.71c3.2-2.76,6.04-5.81,8.49-9.11c2.45-3.29,4.5-6.86,6.17-10.65
			c3.28-7.52,5.05-16.67,5.26-27.22c0.11-6.44-0.25-12.26-1.08-17.27c-2.23-13.53-7.85-24.04-16.67-31.21
			c-8.85-7.19-20.73-10.84-35.31-10.84c-17.88,0-31.76,5.17-41.24,15.36C60.52,66.31,55.46,81,54.8,99.97
			c-0.17,5.5,0.19,10.98,1.07,16.29c2.04,12.33,6.91,22.15,14.49,29.21c7.71,7.2,17.94,10.84,30.4,10.84c2.1,0,4.17-0.09,6.18-0.29
			c0.49-0.04,0.97-0.1,1.46-0.16c-0.99,0.53-1.96,1.05-2.93,1.56c-2.4,1.25-4.94,2.52-7.63,3.79c-3.42,1.65-7.06,3.34-10.91,5.04
			c-0.03,0.01-0.08,0.03-0.11,0.04c-3.63,1.32-5.37,2.23-5.37,2.23s0,0,7.19,12.8c3.01-1.43,6.7-2.62,10.88-3.59
			c6.36-1.5,13.84-2.53,21.78-3.22c0.2-0.01,0.39-0.03,0.58-0.04c16.38-1.37,34.6-1.29,48.78-0.86c14.28,0.44,24.44,1.23,24.44,1.23
			S194.05,173.94,185.05,163.87z M109.63,140.53c-8.68,0-15.55-2.29-21-7.03c-2.73-2.36-4.99-5.33-6.75-8.86
			c-1.76-3.52-3.01-7.62-3.78-12.24c-0.66-3.94-0.91-8.3-0.78-12.96c0.31-7.83,1.62-14.91,3.86-21.03
			c2.18-5.93,5.04-10.9,8.49-14.79c5.16-3.75,12.01-5.64,20.32-5.64c8.44,0,15.1,2.29,20.32,7c5.27,4.74,8.73,11.86,10.26,21.13
			c0.74,4.5,1.02,9.24,0.82,14.15c-0.44,15.32-5.15,27.36-14.03,35.77C122.45,139.01,116.49,140.53,109.63,140.53z"/>
		<path class="st3" d="M205.11,58.37c0.03,0.03,0.06,0.07,0.09,0.1l0.89,1.02c0.33,0.36,0.64,0.72,0.99,1.1
			c1.11,1.26,2.34,2.63,3.67,4.14c12.87,0.82,24.34,0.93,34.49,0.6c3-0.1,5.89-0.24,8.65-0.42c2.79-0.3,5.59-0.64,7.93-0.73
			c-0.08,0.04-0.16,0.09-0.24,0.14c-5.54,3.09-11.69,7.26-15.68,10.71c-3.2,2.76-6.04,5.81-8.49,9.11
			c-2.45,3.29-4.5,6.86-6.17,10.65c-3.28,7.52-5.05,16.67-5.26,27.22c-0.11,6.44,0.25,12.26,1.08,17.27
			c2.23,13.53,7.85,24.04,16.67,31.21c8.85,7.19,20.73,10.84,35.31,10.84c17.88,0,31.76-5.17,41.24-15.36
			c9.34-10.04,14.41-24.73,15.07-43.7c0.17-5.5-0.19-10.98-1.07-16.29c-2.04-12.33-6.91-22.15-14.49-29.21
			c-7.71-7.2-17.94-10.84-30.4-10.84c-2.1,0-4.17,0.09-6.18,0.29c-0.49,0.04-0.97,0.1-1.46,0.16c0.99-0.53,1.96-1.05,2.93-1.56
			c2.4-1.25,4.94-2.52,7.63-3.79c3.42-1.65,7.06-3.34,10.91-5.04c0.03-0.01,0.08-0.03,0.11-0.04c3.63-1.32,5.37-2.23,5.37-2.23
			s0,0-7.19-12.8c-3.01,1.43-6.7,2.62-10.88,3.59c-6.36,1.5-13.84,2.53-21.78,3.22c-0.2,0.01-0.39,0.03-0.58,0.04
			c-16.38,1.37-34.6,1.29-48.78,0.86c-14.28-0.44-24.44-1.23-24.44-1.23S196.12,48.31,205.11,58.37z M280.54,81.71
			c8.68,0,15.55,2.29,21,7.03c2.73,2.36,4.99,5.33,6.75,8.86c1.76,3.52,3.01,7.62,3.78,12.24c0.66,3.94,0.91,8.3,0.78,12.96
			c-0.31,7.83-1.62,14.91-3.86,21.03c-2.18,5.93-5.04,10.9-8.49,14.79c-5.16,3.75-12.01,5.64-20.32,5.64c-8.44,0-15.1-2.29-20.32-7
			c-5.27-4.74-8.73-11.86-10.26-21.13c-0.74-4.5-1.02-9.24-0.82-14.15c0.44-15.32,5.15-27.36,14.03-35.77
			C267.71,83.23,273.68,81.71,280.54,81.71z"/>
	</g>
</g>
</svg>
